<svg width="250" height="250" viewBox="0 0 250 250" fill="none" xmlns="http://www.w3.org/2000/svg">
<rect width="250" height="250" rx="20" fill="#E3E2E2"/>
<path d="M60.91 171V77.56H72.43V129.656H85.998L106.478 100.6H119.662L95.982 134.136L120.046 171H106.606L86.126 139.64H72.43V171H60.91ZM141.244 171L129.98 100.6H140.22L147.26 150.52C147.516 152.397 147.772 154.445 148.028 156.664C148.369 158.797 148.625 160.589 148.796 162.04C148.967 160.589 149.223 158.797 149.564 156.664C149.991 154.445 150.332 152.397 150.588 150.52L158.396 100.6H169.404L177.212 150.52C177.468 152.397 177.767 154.445 178.108 156.664C178.535 158.797 178.833 160.589 179.004 162.04C179.175 160.589 179.431 158.797 179.772 156.664C180.199 154.445 180.54 152.397 180.796 150.52L188.092 100.6H197.82L186.044 171H173.372L165.82 122.36C165.479 119.971 165.095 117.581 164.668 115.192C164.241 112.803 163.943 110.925 163.772 109.56C163.601 110.925 163.345 112.803 163.004 115.192C162.663 117.581 162.279 119.971 161.852 122.36L153.916 171H141.244Z" fill="black"/>
</svg>
